<svg width="14" height="17" viewBox="0 0 14 17" fill="none" xmlns="http://www.w3.org/2000/svg">
<path d="M4.17857 2.41658H2.46429C2.00963 2.41658 1.57359 2.59217 1.2521 2.90473C0.930612 3.21729 0.75 3.64121 0.75 4.08324V14.0832C0.75 14.5253 0.930612 14.9492 1.2521 15.2618C1.57359 15.5743 2.00963 15.7499 2.46429 15.7499H11.0357C11.4904 15.7499 11.9264 15.5743 12.2479 15.2618C12.5694 14.9492 12.75 14.5253 12.75 14.0832V4.08324C12.75 3.64121 12.5694 3.21729 12.2479 2.90473C11.9264 2.59217 11.4904 2.41658 11.0357 2.41658H9.32143M4.17857 2.41658C4.17857 2.8586 4.35918 3.28253 4.68067 3.59509C5.00217 3.90765 5.4382 4.08324 5.89286 4.08324H7.60714C8.0618 4.08324 8.49783 3.90765 8.81933 3.59509C9.14082 3.28253 9.32143 2.8586 9.32143 2.41658M4.17857 2.41658C4.17857 1.97455 4.35918 1.55062 4.68067 1.23806C5.00217 0.925503 5.4382 0.749908 5.89286 0.749908H7.60714C8.0618 0.749908 8.49783 0.925503 8.81933 1.23806C9.14082 1.55062 9.32143 1.97455 9.32143 2.41658" stroke="#99A1AF" stroke-width="1.49981" stroke-linecap="round" stroke-linejoin="round"/>
</svg>
