<svg width="18" height="18" viewBox="0 0 18 18" fill="none" xmlns="http://www.w3.org/2000/svg">
<g clip-path="url(#clip0_218_4158)">
<path fill-rule="evenodd" clip-rule="evenodd" d="M8.49664 0.172326C8.79205 -0.0574421 9.2057 -0.0574421 9.50111 0.172326L16.8638 5.89887C17.0631 6.05385 17.1797 6.29217 17.1797 6.54462V15.5435C17.1797 16.1944 16.9211 16.8186 16.4608 17.2789C16.0006 17.7391 15.3764 17.9977 14.7254 17.9977H3.27235C2.62144 17.9977 1.9972 17.7391 1.53694 17.2789C1.07668 16.8186 0.818115 16.1944 0.818115 15.5435V6.54462C0.818115 6.29217 0.934669 6.05385 1.13394 5.89887L8.49664 0.172326Z" fill="#99A1AF"/>
<path d="M12.2712 8.99884H5.72656V17.9977H12.2712V8.99884Z" fill="#99A1AF"/>
</g>
<defs>
<clipPath id="clip0_218_4158">
<rect width="17.9977" height="17.9977" fill="white"/>
</clipPath>
</defs>
</svg>
