<svg width="16" height="16" viewBox="0 0 16 16" fill="none" xmlns="http://www.w3.org/2000/svg">
<g clip-path="url(#clip0_183_19688)">
<path d="M13.3325 6.66601C13.3325 9.99447 9.64006 13.4609 8.40014 14.5315C8.28463 14.6184 8.14402 14.6653 7.9995 14.6653C7.85497 14.6653 7.71436 14.6184 7.59885 14.5315C6.35893 13.4609 2.6665 9.99447 2.6665 6.66601C2.6665 5.25161 3.22836 3.89514 4.2285 2.89501C5.22863 1.89488 6.5851 1.33301 7.9995 1.33301C9.4139 1.33301 10.7704 1.89488 11.7705 2.89501C12.7706 3.89514 13.3325 5.25161 13.3325 6.66601Z" stroke="#6A7282" stroke-width="1.33325" stroke-linecap="round" stroke-linejoin="round"/>
<path d="M7.9995 8.66625C9.104 8.66625 9.99938 7.77088 9.99938 6.66638C9.99938 5.56188 9.104 4.6665 7.9995 4.6665C6.895 4.6665 5.99963 5.56188 5.99963 6.66638C5.99963 7.77088 6.895 8.66625 7.9995 8.66625Z" stroke="#6A7282" stroke-width="1.33325" stroke-linecap="round" stroke-linejoin="round"/>
</g>
<defs>
<clipPath id="clip0_183_19688">
<rect width="15.999" height="15.999" fill="white"/>
</clipPath>
</defs>
</svg>
