<svg width="16" height="16" viewBox="0 0 16 16" fill="none" xmlns="http://www.w3.org/2000/svg">
<path d="M10.3174 8.59277L11.3273 14.2764C11.3386 14.3433 11.3292 14.4121 11.3004 14.4736C11.2715 14.535 11.2246 14.5862 11.1659 14.6203C11.1072 14.6543 11.0395 14.6697 10.9718 14.6642C10.9042 14.6587 10.8398 14.6328 10.7873 14.5897L8.4008 12.7985C8.2856 12.7124 8.14564 12.6659 8.00183 12.6659C7.85802 12.6659 7.71806 12.7124 7.60285 12.7985L5.21234 14.5891C5.15989 14.632 5.09559 14.658 5.02801 14.6634C4.96044 14.6689 4.89281 14.6536 4.83414 14.6196C4.77547 14.5857 4.72855 14.5346 4.69965 14.4733C4.67075 14.412 4.66123 14.3433 4.67237 14.2764L5.68164 8.59277" stroke="#6A7282" stroke-width="1.33325" stroke-linecap="round" stroke-linejoin="round"/>
<path d="M7.9995 9.33251C10.2085 9.33251 11.9992 7.54176 11.9992 5.33276C11.9992 3.12376 10.2085 1.33301 7.9995 1.33301C5.7905 1.33301 3.99975 3.12376 3.99975 5.33276C3.99975 7.54176 5.7905 9.33251 7.9995 9.33251Z" stroke="#6A7282" stroke-width="1.33325" stroke-linecap="round" stroke-linejoin="round"/>
</svg>
