<svg width="20" height="20" viewBox="0 0 20 20" fill="none" xmlns="http://www.w3.org/2000/svg">
<g clip-path="url(#clip0_183_19735)">
<path d="M10.1815 1.6665H9.8149C9.37295 1.6665 8.9491 1.84207 8.6366 2.15457C8.3241 2.46708 8.14853 2.89092 8.14853 3.33287V3.48284C8.14823 3.77506 8.07109 4.06206 7.92485 4.31506C7.77862 4.56805 7.56842 4.77814 7.31535 4.92425L6.95708 5.13255C6.70376 5.2788 6.4164 5.3558 6.1239 5.3558C5.83139 5.3558 5.54403 5.2788 5.29071 5.13255L5.16574 5.06589C4.78336 4.84532 4.32908 4.78548 3.90263 4.89951C3.47618 5.01355 3.1124 5.29213 2.89115 5.67412L2.70784 5.99073C2.48727 6.3731 2.42743 6.82738 2.54146 7.25383C2.6555 7.68028 2.93408 8.04406 3.31607 8.26532L3.44105 8.34864C3.6929 8.49403 3.90231 8.70281 4.04848 8.95422C4.19465 9.20562 4.27247 9.49091 4.27423 9.78171V10.2066C4.2754 10.5003 4.19895 10.789 4.05264 11.0436C3.90633 11.2982 3.69534 11.5096 3.44105 11.6564L3.31607 11.7314C2.93408 11.9526 2.6555 12.3164 2.54146 12.7428C2.42743 13.1693 2.48727 13.6236 2.70784 14.0059L2.89115 14.3226C3.1124 14.7045 3.47618 14.9831 3.90263 15.0972C4.32908 15.2112 4.78336 15.1514 5.16574 14.9308L5.29071 14.8641C5.54403 14.7179 5.83139 14.6409 6.1239 14.6409C6.4164 14.6409 6.70376 14.7179 6.95708 14.8641L7.31535 15.0724C7.56842 15.2185 7.77862 15.4286 7.92485 15.6816C8.07109 15.9346 8.14823 16.2216 8.14853 16.5138V16.6638C8.14853 17.1058 8.3241 17.5296 8.6366 17.8421C8.9491 18.1546 9.37295 18.3302 9.8149 18.3302H10.1815C10.6234 18.3302 11.0473 18.1546 11.3598 17.8421C11.6723 17.5296 11.8479 17.1058 11.8479 16.6638V16.5138C11.8482 16.2216 11.9253 15.9346 12.0715 15.6816C12.2178 15.4286 12.428 15.2185 12.681 15.0724L13.0393 14.8641C13.2926 14.7179 13.58 14.6409 13.8725 14.6409C14.165 14.6409 14.4524 14.7179 14.7057 14.8641L14.8307 14.9308C15.213 15.1514 15.6673 15.2112 16.0938 15.0972C16.5202 14.9831 16.884 14.7045 17.1053 14.3226L17.2886 13.9976C17.5091 13.6152 17.569 13.161 17.4549 12.7345C17.3409 12.3081 17.0623 11.9443 16.6803 11.723L16.5554 11.6564C16.3011 11.5096 16.0901 11.2982 15.9438 11.0436C15.7974 10.789 15.721 10.5003 15.7222 10.2066V9.79004C15.721 9.49641 15.7974 9.20769 15.9438 8.9531C16.0901 8.69852 16.3011 8.48712 16.5554 8.3403L16.6803 8.26532C17.0623 8.04406 17.3409 7.68028 17.4549 7.25383C17.569 6.82738 17.5091 6.3731 17.2886 5.99073L17.1053 5.67412C16.884 5.29213 16.5202 5.01355 16.0938 4.89951C15.6673 4.78548 15.213 4.84532 14.8307 5.06589L14.7057 5.13255C14.4524 5.2788 14.165 5.3558 13.8725 5.3558C13.58 5.3558 13.2926 5.2788 13.0393 5.13255L12.681 4.92425C12.428 4.77814 12.2178 4.56805 12.0715 4.31506C11.9253 4.06206 11.8482 3.77506 11.8479 3.48284V3.33287C11.8479 2.89092 11.6723 2.46708 11.3598 2.15457C11.0473 1.84207 10.6234 1.6665 10.1815 1.6665Z" stroke="#261D65" stroke-width="1.66637" stroke-linecap="round" stroke-linejoin="round"/>
<path d="M9.9982 12.4976C11.3787 12.4976 12.4977 11.3785 12.4977 9.99809C12.4977 8.61762 11.3787 7.49854 9.9982 7.49854C8.61774 7.49854 7.49865 8.61762 7.49865 9.99809C7.49865 11.3785 8.61774 12.4976 9.9982 12.4976Z" stroke="#261D65" stroke-width="1.66637" stroke-linecap="round" stroke-linejoin="round"/>
</g>
<defs>
<clipPath id="clip0_183_19735">
<rect width="19.9964" height="19.9964" fill="white"/>
</clipPath>
</defs>
</svg>
