<svg width="67" height="67" viewBox="0 0 67 67" fill="none" xmlns="http://www.w3.org/2000/svg">
<g clip-path="url(#paint0_diamond_220_4414_clip_path)" data-figma-skip-parse="true"><g transform="matrix(0 0.0256833 -0.0256833 0 33.5 34)"><rect x="0" y="0" width="1011.58" height="1011.58" fill="url(#paint0_diamond_220_4414)" opacity="0.9" shape-rendering="crispEdges"/><rect x="0" y="0" width="1011.58" height="1011.58" transform="scale(1 -1)" fill="url(#paint0_diamond_220_4414)" opacity="0.9" shape-rendering="crispEdges"/><rect x="0" y="0" width="1011.58" height="1011.58" transform="scale(-1 1)" fill="url(#paint0_diamond_220_4414)" opacity="0.9" shape-rendering="crispEdges"/><rect x="0" y="0" width="1011.58" height="1011.58" transform="scale(-1)" fill="url(#paint0_diamond_220_4414)" opacity="0.9" shape-rendering="crispEdges"/></g></g><path d="M59.1833 34C51.0928 31.3619 44.7579 21.247 43.109 8.31665C41.9346 17.5324 38.3757 25.3166 33.5 29.9896C28.6243 25.3166 25.0654 17.5442 23.891 8.31665C22.242 21.247 15.9072 31.3619 7.81665 34C15.9072 36.6381 22.242 46.7529 23.891 59.6833C25.0654 50.4676 28.6243 42.6833 33.5 38.0104C38.3757 42.6833 41.9346 50.4558 43.109 59.6833C44.7579 46.7529 51.0928 36.6381 59.1833 34Z" data-figma-gradient-fill="{&#34;type&#34;:&#34;GRADIENT_DIAMOND&#34;,&#34;stops&#34;:[{&#34;color&#34;:{&#34;r&#34;:1.0,&#34;g&#34;:1.0,&#34;b&#34;:1.0,&#34;a&#34;:1.0},&#34;position&#34;:0.97115385532379150}],&#34;stopsVar&#34;:[{&#34;color&#34;:{&#34;r&#34;:1.0,&#34;g&#34;:1.0,&#34;b&#34;:1.0,&#34;a&#34;:1.0},&#34;position&#34;:0.97115385532379150}],&#34;transform&#34;:{&#34;m00&#34;:3.1453016308412600e-15,&#34;m01&#34;:-51.366672515869141,&#34;m02&#34;:59.183322906494141,&#34;m10&#34;:51.366672515869141,&#34;m11&#34;:3.1453016308412600e-15,&#34;m12&#34;:8.3166503906250},&#34;opacity&#34;:0.89999997615814209,&#34;blendMode&#34;:&#34;NORMAL&#34;,&#34;visible&#34;:true}"/>
<defs>
<clipPath id="paint0_diamond_220_4414_clip_path"><path d="M59.1833 34C51.0928 31.3619 44.7579 21.247 43.109 8.31665C41.9346 17.5324 38.3757 25.3166 33.5 29.9896C28.6243 25.3166 25.0654 17.5442 23.891 8.31665C22.242 21.247 15.9072 31.3619 7.81665 34C15.9072 36.6381 22.242 46.7529 23.891 59.6833C25.0654 50.4676 28.6243 42.6833 33.5 38.0104C38.3757 42.6833 41.9346 50.4558 43.109 59.6833C44.7579 46.7529 51.0928 36.6381 59.1833 34Z"/></clipPath><linearGradient id="paint0_diamond_220_4414" x1="0" y1="0" x2="500" y2="500" gradientUnits="userSpaceOnUse">
<stop offset="0.971154" stop-color="white"/>
</linearGradient>
</defs>
</svg>
